<svg xmlns="http://www.w3.org/2000/svg" viewBox="0 0 351 472"><defs><style>.cls-1{fill:#fff;}</style></defs><title>Ресурс 2</title><g id="Слой_2" data-name="Слой 2"><g id="Слой_1-2" data-name="Слой 1"><path class="cls-1" d="M339,4a8,8,0,0,1,8,8V392a7.31,7.31,0,0,1-1.66,4L275,466.34a7.31,7.31,0,0,1-4,1.66H12a8,8,0,0,1-8-8V80a7.31,7.31,0,0,1,1.66-4L76,5.66A7.31,7.31,0,0,1,80,4H339m0-4H80a11.12,11.12,0,0,0-6.83,2.83L2.83,73.17A11.12,11.12,0,0,0,0,80V460a12,12,0,0,0,12,12H271a11.12,11.12,0,0,0,6.83-2.83l70.34-70.34A11.12,11.12,0,0,0,351,392V12A12,12,0,0,0,339,0Z"/></g></g></svg>
