<svg width="1768" height="574" viewBox="0 0 1768 574" fill="none" xmlns="http://www.w3.org/2000/svg">
<path d="M137.953 125.045H134.274V448.955H137.953V125.045Z" fill="url(#paint0_linear_87_9506)"/>
<path d="M183.446 52.8051H179.768V521.195H183.446V52.8051Z" fill="url(#paint1_linear_87_9506)"/>
<path d="M210.056 70.8837H206.377V503.116H210.056V70.8837Z" fill="url(#paint2_linear_87_9506)"/>
<path d="M256.53 127.907H252.852V446.093H256.53V127.907Z" fill="url(#paint3_linear_87_9506)"/>
<path d="M363.949 165.496H360.271V408.504H363.949V165.496Z" fill="url(#paint4_linear_87_9506)"/>
<path d="M412.018 213.593H408.34V360.445H412.018V213.593Z" fill="url(#paint5_linear_87_9506)"/>
<path d="M532.006 166.061H528.328V409.37H532.006V166.061Z" fill="url(#paint6_linear_87_9506)"/>
<path d="M581.301 163.01H577.623V409.559H581.301V163.01Z" fill="url(#paint7_linear_87_9506)"/>
<path d="M481.117 196.305H477.438V377.695H481.117V196.305Z" fill="url(#paint8_linear_87_9506)"/>
<path d="M530.106 151.334H526.427V422.666H530.106V151.334Z" fill="url(#paint9_linear_87_9506)"/>
<path d="M558.493 17.9281H554.815V556.11H558.493V17.9281Z" fill="url(#paint10_linear_87_9506)"/>
<path d="M607.972 166.287H604.294V407.751H607.972V166.287Z" fill="url(#paint11_linear_87_9506)"/>
<path d="M720.971 181.541H717.292V392.497H720.971V181.541Z" fill="url(#paint12_linear_87_9506)"/>
<path d="M771.002 55.7051H767.323V518.332H771.002V55.7051Z" fill="url(#paint13_linear_87_9506)"/>
<path d="M894.546 132.916H890.867V442.854H894.546V132.916Z" fill="url(#paint14_linear_87_9506)"/>
<path d="M944.76 131.334H941.082V440.858H944.76V131.334Z" fill="url(#paint15_linear_87_9506)"/>
<path d="M588.904 192.84H585.225V381.16H588.904V192.84Z" fill="url(#paint16_linear_87_9506)"/>
<path d="M638.506 166.701H634.827V407.299H638.506V166.701Z" fill="url(#paint17_linear_87_9506)"/>
<path d="M667.2 181.691H663.521V392.346H667.2V181.691Z" fill="url(#paint18_linear_87_9506)"/>
<path d="M717.108 191.71H713.429V382.328H717.108V191.71Z" fill="url(#paint19_linear_87_9506)"/>
<path d="M830.781 163.311H827.102V410.726H830.781V163.311Z" fill="url(#paint20_linear_87_9506)"/>
<path d="M880.996 76.4203H877.317V497.617H880.996V76.4203Z" fill="url(#paint21_linear_87_9506)"/>
<path d="M1004.54 193.33H1000.86V381.725H1004.54V193.33Z" fill="url(#paint22_linear_87_9506)"/>
<path d="M1054.57 192.765H1050.89V380.143H1054.57V192.765Z" fill="url(#paint23_linear_87_9506)"/>
<path d="M952.424 151.409H948.746V422.628H952.424V151.409Z" fill="url(#paint24_linear_87_9506)"/>
<path d="M1002.58 129.188H998.899V444.85H1002.58V129.188Z" fill="url(#paint25_linear_87_9506)"/>
<path d="M1031.46 173.707H1027.78V400.256H1031.46V173.707Z" fill="url(#paint26_linear_87_9506)"/>
<path d="M1081.43 127.606H1077.75V446.394H1081.43V127.606Z" fill="url(#paint27_linear_87_9506)"/>
<path d="M1194.18 104.593H1190.5V469.445H1194.18V104.593Z" fill="url(#paint28_linear_87_9506)"/>
<path d="M1243.47 166.061H1239.79V407.939H1243.47V166.061Z" fill="url(#paint29_linear_87_9506)"/>
<path d="M1363.4 129.075H1359.72V446.771H1363.4V129.075Z" fill="url(#paint30_linear_87_9506)"/>
<path d="M1411.41 130.619H1407.73V441.611H1411.41V130.619Z" fill="url(#paint31_linear_87_9506)"/>
<path d="M507.481 75.0645H503.803V498.936H507.481V75.0645Z" fill="url(#paint32_linear_87_9506)"/>
<path d="M556.593 128.886H552.914V445.114H556.593V128.886Z" fill="url(#paint33_linear_87_9506)"/>
<path d="M585.103 84.3298H581.424V489.708H585.103V84.3298Z" fill="url(#paint34_linear_87_9506)"/>
<path d="M634.704 25.0089H631.026V548.991H634.704V25.0089Z" fill="url(#paint35_linear_87_9506)"/>
<path d="M747.887 54.8766H744.208V519.124H747.887V54.8766Z" fill="url(#paint36_linear_87_9506)"/>
<path d="M797.979 142.031H794.3V432.007H797.979V142.031Z" fill="url(#paint37_linear_87_9506)"/>
<path d="M921.584 211.371H917.906V363.571H921.584V211.371Z" fill="url(#paint38_linear_87_9506)"/>
<path d="M971.738 210.655H968.059V362.479H971.738V210.655Z" fill="url(#paint39_linear_87_9506)"/>
<path d="M869.408 155.665H865.729V418.297H869.408V155.665Z" fill="url(#paint40_linear_87_9506)"/>
<path d="M919.622 115.327H915.944V458.71H919.622V115.327Z" fill="url(#paint41_linear_87_9506)"/>
<path d="M948.623 200.147H944.944V373.853H948.623V200.147Z" fill="url(#paint42_linear_87_9506)"/>
<path d="M998.715 176.117H995.036V397.883H998.715V176.117Z" fill="url(#paint43_linear_87_9506)"/>
<path d="M1112.14 179.469H1108.46V394.531H1112.14V179.469Z" fill="url(#paint44_linear_87_9506)"/>
<path d="M1161.81 100.601H1158.13V473.399H1161.81V100.601Z" fill="url(#paint45_linear_87_9506)"/>
<path d="M1283.02 165.872H1279.34V409.559H1283.02V165.872Z" fill="url(#paint46_linear_87_9506)"/>
<path d="M1331.76 166.55H1328.08V406.056H1331.76V166.55Z" fill="url(#paint47_linear_87_9506)"/>
<path d="M979.463 191.974H975.784V382.026H979.463V191.974Z" fill="url(#paint48_linear_87_9506)"/>
<path d="M1029.56 88.1715H1025.88V485.828H1029.56V88.1715Z" fill="url(#paint49_linear_87_9506)"/>
<path d="M1058.43 126.777H1054.75V447.26H1058.43V126.777Z" fill="url(#paint50_linear_87_9506)"/>
<path d="M1108.28 207.453H1104.6V366.584H1108.28V207.453Z" fill="url(#paint51_linear_87_9506)"/>
<path d="M1220.73 158.49H1217.05V415.547H1220.73V158.49Z" fill="url(#paint52_linear_87_9506)"/>
<path d="M1269.84 126.062H1266.16V447.976H1269.84V126.062Z" fill="url(#paint53_linear_87_9506)"/>
<path d="M1389.34 139.696H1385.66V436.037H1389.34V139.696Z" fill="url(#paint54_linear_87_9506)"/>
<path d="M1437.16 141.353H1433.48V430.99H1437.16V141.353Z" fill="url(#paint55_linear_87_9506)"/>
<path d="M1339.18 41.6564H1335.5V532.381H1339.18V41.6564Z" fill="url(#paint56_linear_87_9506)"/>
<path d="M1387.43 119.696H1383.76V454.341H1387.43V119.696Z" fill="url(#paint57_linear_87_9506)"/>
<path d="M1415.09 155.929H1411.41V418.071H1415.09V155.929Z" fill="url(#paint58_linear_87_9506)"/>
<path d="M1462.67 194.12H1458.99V379.917H1462.67V194.12Z" fill="url(#paint59_linear_87_9506)"/>
<path d="M1568.74 197.51H1565.06V376.49H1568.74V197.51Z" fill="url(#paint60_linear_87_9506)"/>
<path d="M1614.54 194.535H1610.86V379.503H1614.54V194.535Z" fill="url(#paint61_linear_87_9506)"/>
<path d="M1724.53 79.5841H1720.85V496.826H1724.53V79.5841Z" fill="url(#paint62_linear_87_9506)"/>
<path d="M1768 87.3053H1764.32V484.435H1768V87.3053Z" fill="url(#paint63_linear_87_9506)"/>
<path d="M3.67874 134.95H0V439.087H3.67874V134.95Z" fill="url(#paint64_linear_87_9506)"/>
<path d="M47.1491 175.251H43.4704V398.749H47.1491V175.251Z" fill="url(#paint65_linear_87_9506)"/>
<path d="M72.5324 167.492H68.8536V406.546H72.5324V167.492Z" fill="url(#paint66_linear_87_9506)"/>
<path d="M117.106 70.8837H113.428V503.116H117.106V70.8837Z" fill="url(#paint67_linear_87_9506)"/>
<path d="M220.724 134.875H217.045V439.125H220.724V134.875Z" fill="url(#paint68_linear_87_9506)"/>
<path d="M267.321 145.647H263.643V428.353H267.321V145.647Z" fill="url(#paint69_linear_87_9506)"/>
<path d="M384.244 113.858H380.565V462.138H384.244V113.858Z" fill="url(#paint70_linear_87_9506)"/>
<path d="M432.497 108.284H428.818V463.682H432.497V108.284Z" fill="url(#paint71_linear_87_9506)"/>
<path d="M334.52 49.1516H330.841V524.886H334.52V49.1516Z" fill="url(#paint72_linear_87_9506)"/>
<path d="M382.343 190.166H378.664V383.872H382.343V190.166Z" fill="url(#paint73_linear_87_9506)"/>
<path d="M410.179 217.397H406.5V356.603H410.179V217.397Z" fill="url(#paint74_linear_87_9506)"/>
<path d="M458.616 14.4253H454.937V559.612H458.616V14.4253Z" fill="url(#paint75_linear_87_9506)"/>
<path d="M569.897 201.766H566.219V372.271H569.897V201.766Z" fill="url(#paint76_linear_87_9506)"/>
<path d="M619.376 162.106H615.698V411.894H619.376V162.106Z" fill="url(#paint77_linear_87_9506)"/>
<path d="M742.123 71.9008H738.445V504.623H742.123V71.9008Z" fill="url(#paint78_linear_87_9506)"/>
<path d="M792.216 68.3979H788.537V503.079H792.216V68.3979Z" fill="url(#paint79_linear_87_9506)"/>
<path d="M439.915 87.23H436.237V486.808H439.915V87.23Z" fill="url(#paint80_linear_87_9506)"/>
<path d="M488.659 123.124H484.98V450.876H488.659V123.124Z" fill="url(#paint81_linear_87_9506)"/>
<path d="M516.924 34.3119H513.245V539.688H516.924V34.3119Z" fill="url(#paint82_linear_87_9506)"/>
<path d="M566.096 188.094H562.417V385.943H566.096V188.094Z" fill="url(#paint83_linear_87_9506)"/>
<path d="M678.727 113.557H675.048V460.481H678.727V113.557Z" fill="url(#paint84_linear_87_9506)"/>
<path d="M728.635 33.4457H724.956V540.554H728.635V33.4457Z" fill="url(#paint85_linear_87_9506)"/>
<path d="M852.056 207.002H848.378V367.978H852.056V207.002Z" fill="url(#paint86_linear_87_9506)"/>
<path d="M902.271 206.022H898.592V367.036H902.271V206.022Z" fill="url(#paint87_linear_87_9506)"/>
<path d="M799.941 0H796.262V574H799.941V0Z" fill="url(#paint88_linear_87_9506)"/>
<path d="M850.094 179.544H846.416V394.493H850.094V179.544Z" fill="url(#paint89_linear_87_9506)"/>
<path d="M879.095 106.627H875.416V467.411H879.095V106.627Z" fill="url(#paint90_linear_87_9506)"/>
<path d="M929.31 180.109H925.631V393.891H929.31V180.109Z" fill="url(#paint91_linear_87_9506)"/>
<path d="M1043.04 16.7605H1039.37V557.24H1043.04V16.7605Z" fill="url(#paint92_linear_87_9506)"/>
<path d="M1092.95 188.433H1089.27V385.604H1092.95V188.433Z" fill="url(#paint93_linear_87_9506)"/>
<path d="M1215.09 26.6285H1211.41V550.385H1215.09V26.6285Z" fill="url(#paint94_linear_87_9506)"/>
<path d="M1264.2 27.3441H1260.52V543.718H1264.2V27.3441Z" fill="url(#paint95_linear_87_9506)"/>
<path d="M360.271 148.095H356.592V425.905H360.271V148.095Z" fill="url(#paint96_linear_87_9506)"/>
<path d="M408.278 73.5579H404.6V500.442H408.278V73.5579Z" fill="url(#paint97_linear_87_9506)"/>
<path d="M436.237 87.0039H432.558V487.034H436.237V87.0039Z" fill="url(#paint98_linear_87_9506)"/>
<path d="M484.857 15.1786H481.178V558.859H484.857V15.1786Z" fill="url(#paint99_linear_87_9506)"/>
<path d="M596.507 93.9718H592.828V480.066H596.507V93.9718Z" fill="url(#paint100_linear_87_9506)"/>
<path d="M646.17 86.4767H642.491V487.561H646.17V86.4767Z" fill="url(#paint101_linear_87_9506)"/>
<path d="M769.101 82.7856H765.422V493.587H769.101V82.7856Z" fill="url(#paint102_linear_87_9506)"/>
<path d="M819.193 79.6971H815.514V491.93H819.193V79.6971Z" fill="url(#paint103_linear_87_9506)"/>
<path d="M717.108 199.619H713.429V374.381H717.108V199.619Z" fill="url(#paint104_linear_87_9506)"/>
<path d="M767.139 37.7394H763.46V536.261H767.139V37.7394Z" fill="url(#paint105_linear_87_9506)"/>
<path d="M796.078 180.034H792.399V393.966H796.078V180.034Z" fill="url(#paint106_linear_87_9506)"/>
<path d="M846.232 106.589H842.553V467.411H846.232V106.589Z" fill="url(#paint107_linear_87_9506)"/>
<path d="M960.15 85.422H956.471V488.616H960.15V85.422Z" fill="url(#paint108_linear_87_9506)"/>
<path d="M1010.3 163.01H1006.62V411.028H1010.3V163.01Z" fill="url(#paint109_linear_87_9506)"/>
<path d="M1133.17 104.367H1129.49V471.742H1133.17V104.367Z" fill="url(#paint110_linear_87_9506)"/>
<path d="M1182.77 104.216H1179.1V467.674H1182.77V104.216Z" fill="url(#paint111_linear_87_9506)"/>
<path d="M826.918 157.85H823.24V416.188H826.918V157.85Z" fill="url(#paint112_linear_87_9506)"/>
<path d="M877.133 129.414H873.454V444.586H877.133V129.414Z" fill="url(#paint113_linear_87_9506)"/>
<path d="M906.134 185.269H902.455V388.731H906.134V185.269Z" fill="url(#paint114_linear_87_9506)"/>
<path d="M956.287 84.0662H952.608V489.934H956.287V84.0662Z" fill="url(#paint115_linear_87_9506)"/>
<path d="M1069.96 68.6615H1066.28V505.338H1069.96V68.6615Z" fill="url(#paint116_linear_87_9506)"/>
<path d="M1119.81 91.1094H1116.13V482.891H1119.81V91.1094Z" fill="url(#paint117_linear_87_9506)"/>
<path d="M1241.57 206.474H1237.89V368.505H1241.57V206.474Z" fill="url(#paint118_linear_87_9506)"/>
<path d="M1290.56 206.776H1286.88V366.321H1290.56V206.776Z" fill="url(#paint119_linear_87_9506)"/>
<path d="M1190.38 91.825H1186.7V482.213H1190.38V91.825Z" fill="url(#paint120_linear_87_9506)"/>
<path d="M1239.67 95.0264H1235.99V478.974H1239.67V95.0264Z" fill="url(#paint121_linear_87_9506)"/>
<path d="M1268 201.917H1264.32V372.045H1268V201.917Z" fill="url(#paint122_linear_87_9506)"/>
<path d="M1316.8 54.4622H1313.12V519.575H1316.8V54.4622Z" fill="url(#paint123_linear_87_9506)"/>
<path d="M1426.12 148.924H1422.44V425.039H1426.12V148.924Z" fill="url(#paint124_linear_87_9506)"/>
<path d="M1473.58 46.2515H1469.9V527.711H1473.58V46.2515Z" fill="url(#paint125_linear_87_9506)"/>
<path d="M1588.23 132.502H1584.55V443.306H1588.23V132.502Z" fill="url(#paint126_linear_87_9506)"/>
<path d="M1633.73 136.231H1630.05V436.037H1633.73V136.231Z" fill="url(#paint127_linear_87_9506)"/>
<defs>
<linearGradient id="paint0_linear_87_9506" x1="136.086" y1="448.961" x2="136.086" y2="125.05" gradientUnits="userSpaceOnUse">
<stop/>
<stop offset="0.5" stop-color="#00EBFF"/>
<stop offset="1"/>
</linearGradient>
<linearGradient id="paint1_linear_87_9506" x1="181.634" y1="521.195" x2="181.634" y2="52.8163" gradientUnits="userSpaceOnUse">
<stop/>
<stop offset="0.5" stop-color="#00EBFF"/>
<stop offset="1"/>
</linearGradient>
<linearGradient id="paint2_linear_87_9506" x1="208.189" y1="503.121" x2="208.189" y2="70.8893" gradientUnits="userSpaceOnUse">
<stop/>
<stop offset="0.5" stop-color="#00EBFF"/>
<stop offset="1"/>
</linearGradient>
<linearGradient id="paint3_linear_87_9506" x1="254.671" y1="446.09" x2="254.671" y2="127.921" gradientUnits="userSpaceOnUse">
<stop/>
<stop offset="0.5" stop-color="#00EBFF"/>
<stop offset="1"/>
</linearGradient>
<linearGradient id="paint4_linear_87_9506" x1="362.083" y1="408.511" x2="362.083" y2="165.5" gradientUnits="userSpaceOnUse">
<stop/>
<stop offset="0.5" stop-color="#00EBFF"/>
<stop offset="1"/>
</linearGradient>
<linearGradient id="paint5_linear_87_9506" x1="410.172" y1="360.425" x2="410.172" y2="213.586" gradientUnits="userSpaceOnUse">
<stop/>
<stop offset="0.5" stop-color="#00EBFF"/>
<stop offset="1"/>
</linearGradient>
<linearGradient id="paint6_linear_87_9506" x1="530.167" y1="409.367" x2="530.167" y2="166.047" gradientUnits="userSpaceOnUse">
<stop/>
<stop offset="0.5" stop-color="#00EBFF"/>
<stop offset="1"/>
</linearGradient>
<linearGradient id="paint7_linear_87_9506" x1="579.466" y1="409.561" x2="579.466" y2="163.028" gradientUnits="userSpaceOnUse">
<stop/>
<stop offset="0.5" stop-color="#00EBFF"/>
<stop offset="1"/>
</linearGradient>
<linearGradient id="paint8_linear_87_9506" x1="479.287" y1="377.705" x2="479.287" y2="196.306" gradientUnits="userSpaceOnUse">
<stop/>
<stop offset="0.5" stop-color="#00EBFF"/>
<stop offset="1"/>
</linearGradient>
<linearGradient id="paint9_linear_87_9506" x1="528.277" y1="422.674" x2="528.277" y2="151.337" gradientUnits="userSpaceOnUse">
<stop/>
<stop offset="0.5" stop-color="#00EBFF"/>
<stop offset="1"/>
</linearGradient>
<linearGradient id="paint10_linear_87_9506" x1="556.678" y1="556.092" x2="556.678" y2="17.9183" gradientUnits="userSpaceOnUse">
<stop/>
<stop offset="0.5" stop-color="#00EBFF"/>
<stop offset="1"/>
</linearGradient>
<linearGradient id="paint11_linear_87_9506" x1="606.121" y1="407.738" x2="606.121" y2="166.273" gradientUnits="userSpaceOnUse">
<stop/>
<stop offset="0.5" stop-color="#00EBFF"/>
<stop offset="1"/>
</linearGradient>
<linearGradient id="paint12_linear_87_9506" x1="719.117" y1="392.487" x2="719.117" y2="181.524" gradientUnits="userSpaceOnUse">
<stop/>
<stop offset="0.5" stop-color="#00EBFF"/>
<stop offset="1"/>
</linearGradient>
<linearGradient id="paint13_linear_87_9506" x1="769.167" y1="518.312" x2="769.167" y2="55.6989" gradientUnits="userSpaceOnUse">
<stop/>
<stop offset="0.5" stop-color="#00EBFF"/>
<stop offset="1"/>
</linearGradient>
<linearGradient id="paint14_linear_87_9506" x1="892.689" y1="442.867" x2="892.689" y2="132.932" gradientUnits="userSpaceOnUse">
<stop/>
<stop offset="0.5" stop-color="#00EBFF"/>
<stop offset="1"/>
</linearGradient>
<linearGradient id="paint15_linear_87_9506" x1="942.895" y1="440.882" x2="942.895" y2="131.343" gradientUnits="userSpaceOnUse">
<stop/>
<stop offset="0.5" stop-color="#00EBFF"/>
<stop offset="1"/>
</linearGradient>
<linearGradient id="paint16_linear_87_9506" x1="587.074" y1="381.175" x2="587.074" y2="192.836" gradientUnits="userSpaceOnUse">
<stop/>
<stop offset="0.5" stop-color="#00EBFF"/>
<stop offset="1"/>
</linearGradient>
<linearGradient id="paint17_linear_87_9506" x1="636.665" y1="407.311" x2="636.665" y2="166.7" gradientUnits="userSpaceOnUse">
<stop/>
<stop offset="0.5" stop-color="#00EBFF"/>
<stop offset="1"/>
</linearGradient>
<linearGradient id="paint18_linear_87_9506" x1="665.373" y1="392.329" x2="665.373" y2="181.682" gradientUnits="userSpaceOnUse">
<stop/>
<stop offset="0.5" stop-color="#00EBFF"/>
<stop offset="1"/>
</linearGradient>
<linearGradient id="paint19_linear_87_9506" x1="715.273" y1="382.319" x2="715.273" y2="191.692" gradientUnits="userSpaceOnUse">
<stop/>
<stop offset="0.5" stop-color="#00EBFF"/>
<stop offset="1"/>
</linearGradient>
<linearGradient id="paint20_linear_87_9506" x1="828.965" y1="410.707" x2="828.965" y2="163.304" gradientUnits="userSpaceOnUse">
<stop/>
<stop offset="0.5" stop-color="#00EBFF"/>
<stop offset="1"/>
</linearGradient>
<linearGradient id="paint21_linear_87_9506" x1="879.171" y1="497.601" x2="879.171" y2="76.4105" gradientUnits="userSpaceOnUse">
<stop/>
<stop offset="0.5" stop-color="#00EBFF"/>
<stop offset="1"/>
</linearGradient>
<linearGradient id="paint22_linear_87_9506" x1="1002.69" y1="381.753" x2="1002.69" y2="193.346" gradientUnits="userSpaceOnUse">
<stop/>
<stop offset="0.5" stop-color="#00EBFF"/>
<stop offset="1"/>
</linearGradient>
<linearGradient id="paint23_linear_87_9506" x1="1052.73" y1="380.151" x2="1052.73" y2="192.779" gradientUnits="userSpaceOnUse">
<stop/>
<stop offset="0.5" stop-color="#00EBFF"/>
<stop offset="1"/>
</linearGradient>
<linearGradient id="paint24_linear_87_9506" x1="950.615" y1="422.62" x2="950.615" y2="151.391" gradientUnits="userSpaceOnUse">
<stop/>
<stop offset="0.5" stop-color="#00EBFF"/>
<stop offset="1"/>
</linearGradient>
<linearGradient id="paint25_linear_87_9506" x1="1000.76" y1="444.832" x2="1000.76" y2="129.179" gradientUnits="userSpaceOnUse">
<stop/>
<stop offset="0.5" stop-color="#00EBFF"/>
<stop offset="1"/>
</linearGradient>
<linearGradient id="paint26_linear_87_9506" x1="1029.65" y1="400.289" x2="1029.65" y2="173.722" gradientUnits="userSpaceOnUse">
<stop/>
<stop offset="0.5" stop-color="#00EBFF"/>
<stop offset="1"/>
</linearGradient>
<linearGradient id="paint27_linear_87_9506" x1="1079.62" y1="446.404" x2="1079.62" y2="127.607" gradientUnits="userSpaceOnUse">
<stop/>
<stop offset="0.5" stop-color="#00EBFF"/>
<stop offset="1"/>
</linearGradient>
<linearGradient id="paint28_linear_87_9506" x1="1192.33" y1="469.423" x2="1192.33" y2="104.587" gradientUnits="userSpaceOnUse">
<stop/>
<stop offset="0.5" stop-color="#00EBFF"/>
<stop offset="1"/>
</linearGradient>
<linearGradient id="paint29_linear_87_9506" x1="1241.61" y1="407.938" x2="1241.61" y2="166.073" gradientUnits="userSpaceOnUse">
<stop/>
<stop offset="0.5" stop-color="#00EBFF"/>
<stop offset="1"/>
</linearGradient>
<linearGradient id="paint30_linear_87_9506" x1="1361.54" y1="446.779" x2="1361.54" y2="129.065" gradientUnits="userSpaceOnUse">
<stop/>
<stop offset="0.5" stop-color="#00EBFF"/>
<stop offset="1"/>
</linearGradient>
<linearGradient id="paint31_linear_87_9506" x1="1409.6" y1="441.599" x2="1409.6" y2="130.617" gradientUnits="userSpaceOnUse">
<stop/>
<stop offset="0.5" stop-color="#00EBFF"/>
<stop offset="1"/>
</linearGradient>
<linearGradient id="paint32_linear_87_9506" x1="505.627" y1="498.95" x2="505.627" y2="75.0613" gradientUnits="userSpaceOnUse">
<stop/>
<stop offset="0.5" stop-color="#00EBFF"/>
<stop offset="1"/>
</linearGradient>
<linearGradient id="paint33_linear_87_9506" x1="554.782" y1="445.111" x2="554.782" y2="128.9" gradientUnits="userSpaceOnUse">
<stop/>
<stop offset="0.5" stop-color="#00EBFF"/>
<stop offset="1"/>
</linearGradient>
<linearGradient id="paint34_linear_87_9506" x1="583.27" y1="489.697" x2="583.27" y2="84.3142" gradientUnits="userSpaceOnUse">
<stop/>
<stop offset="0.5" stop-color="#00EBFF"/>
<stop offset="1"/>
</linearGradient>
<linearGradient id="paint35_linear_87_9506" x1="632.843" y1="548.999" x2="632.843" y2="25.0121" gradientUnits="userSpaceOnUse">
<stop/>
<stop offset="0.5" stop-color="#00EBFF"/>
<stop offset="1"/>
</linearGradient>
<linearGradient id="paint36_linear_87_9506" x1="746.053" y1="519.131" x2="746.053" y2="54.8808" gradientUnits="userSpaceOnUse">
<stop/>
<stop offset="0.5" stop-color="#00EBFF"/>
<stop offset="1"/>
</linearGradient>
<linearGradient id="paint37_linear_87_9506" x1="796.16" y1="431.985" x2="796.16" y2="142.026" gradientUnits="userSpaceOnUse">
<stop/>
<stop offset="0.5" stop-color="#00EBFF"/>
<stop offset="1"/>
</linearGradient>
<linearGradient id="paint38_linear_87_9506" x1="919.727" y1="363.537" x2="919.727" y2="211.353" gradientUnits="userSpaceOnUse">
<stop/>
<stop offset="0.5" stop-color="#00EBFF"/>
<stop offset="1"/>
</linearGradient>
<linearGradient id="paint39_linear_87_9506" x1="969.909" y1="362.484" x2="969.909" y2="210.651" gradientUnits="userSpaceOnUse">
<stop/>
<stop offset="0.5" stop-color="#00EBFF"/>
<stop offset="1"/>
</linearGradient>
<linearGradient id="paint40_linear_87_9506" x1="867.583" y1="418.329" x2="867.583" y2="155.682" gradientUnits="userSpaceOnUse">
<stop/>
<stop offset="0.5" stop-color="#00EBFF"/>
<stop offset="1"/>
</linearGradient>
<linearGradient id="paint41_linear_87_9506" x1="917.796" y1="458.691" x2="917.796" y2="115.32" gradientUnits="userSpaceOnUse">
<stop/>
<stop offset="0.5" stop-color="#00EBFF"/>
<stop offset="1"/>
</linearGradient>
<linearGradient id="paint42_linear_87_9506" x1="946.755" y1="373.856" x2="946.755" y2="200.155" gradientUnits="userSpaceOnUse">
<stop/>
<stop offset="0.5" stop-color="#00EBFF"/>
<stop offset="1"/>
</linearGradient>
<linearGradient id="paint43_linear_87_9506" x1="996.903" y1="397.889" x2="996.903" y2="176.122" gradientUnits="userSpaceOnUse">
<stop/>
<stop offset="0.5" stop-color="#00EBFF"/>
<stop offset="1"/>
</linearGradient>
<linearGradient id="paint44_linear_87_9506" x1="1110.29" y1="394.54" x2="1110.29" y2="179.471" gradientUnits="userSpaceOnUse">
<stop/>
<stop offset="0.5" stop-color="#00EBFF"/>
<stop offset="1"/>
</linearGradient>
<linearGradient id="paint45_linear_87_9506" x1="1159.97" y1="473.41" x2="1159.97" y2="100.6" gradientUnits="userSpaceOnUse">
<stop/>
<stop offset="0.5" stop-color="#00EBFF"/>
<stop offset="1"/>
</linearGradient>
<linearGradient id="paint46_linear_87_9506" x1="1281.19" y1="409.555" x2="1281.19" y2="165.862" gradientUnits="userSpaceOnUse">
<stop/>
<stop offset="0.5" stop-color="#00EBFF"/>
<stop offset="1"/>
</linearGradient>
<linearGradient id="paint47_linear_87_9506" x1="1329.9" y1="406.064" x2="1329.9" y2="166.565" gradientUnits="userSpaceOnUse">
<stop/>
<stop offset="0.5" stop-color="#00EBFF"/>
<stop offset="1"/>
</linearGradient>
<linearGradient id="paint48_linear_87_9506" x1="977.624" y1="382.029" x2="977.624" y2="191.982" gradientUnits="userSpaceOnUse">
<stop/>
<stop offset="0.5" stop-color="#00EBFF"/>
<stop offset="1"/>
</linearGradient>
<linearGradient id="paint49_linear_87_9506" x1="1027.72" y1="485.828" x2="1027.72" y2="88.1826" gradientUnits="userSpaceOnUse">
<stop/>
<stop offset="0.5" stop-color="#00EBFF"/>
<stop offset="1"/>
</linearGradient>
<linearGradient id="paint50_linear_87_9506" x1="1056.57" y1="447.252" x2="1056.57" y2="126.759" gradientUnits="userSpaceOnUse">
<stop/>
<stop offset="0.5" stop-color="#00EBFF"/>
<stop offset="1"/>
</linearGradient>
<linearGradient id="paint51_linear_87_9506" x1="1106.46" y1="366.565" x2="1106.46" y2="207.446" gradientUnits="userSpaceOnUse">
<stop/>
<stop offset="0.5" stop-color="#00EBFF"/>
<stop offset="1"/>
</linearGradient>
<linearGradient id="paint52_linear_87_9506" x1="1218.9" y1="415.527" x2="1218.9" y2="158.484" gradientUnits="userSpaceOnUse">
<stop/>
<stop offset="0.5" stop-color="#00EBFF"/>
<stop offset="1"/>
</linearGradient>
<linearGradient id="paint53_linear_87_9506" x1="1268.02" y1="447.955" x2="1268.02" y2="126.055" gradientUnits="userSpaceOnUse">
<stop/>
<stop offset="0.5" stop-color="#00EBFF"/>
<stop offset="1"/>
</linearGradient>
<linearGradient id="paint54_linear_87_9506" x1="1387.47" y1="436.024" x2="1387.47" y2="139.696" gradientUnits="userSpaceOnUse">
<stop/>
<stop offset="0.5" stop-color="#00EBFF"/>
<stop offset="1"/>
</linearGradient>
<linearGradient id="paint55_linear_87_9506" x1="1435.29" y1="430.991" x2="1435.29" y2="141.349" gradientUnits="userSpaceOnUse">
<stop/>
<stop offset="0.5" stop-color="#00EBFF"/>
<stop offset="1"/>
</linearGradient>
<linearGradient id="paint56_linear_87_9506" x1="1337.36" y1="532.363" x2="1337.36" y2="41.6472" gradientUnits="userSpaceOnUse">
<stop/>
<stop offset="0.5" stop-color="#00EBFF"/>
<stop offset="1"/>
</linearGradient>
<linearGradient id="paint57_linear_87_9506" x1="1385.62" y1="454.331" x2="1385.62" y2="119.68" gradientUnits="userSpaceOnUse">
<stop/>
<stop offset="0.5" stop-color="#00EBFF"/>
<stop offset="1"/>
</linearGradient>
<linearGradient id="paint58_linear_87_9506" x1="1413.28" y1="418.074" x2="1413.28" y2="155.937" gradientUnits="userSpaceOnUse">
<stop/>
<stop offset="0.5" stop-color="#00EBFF"/>
<stop offset="1"/>
</linearGradient>
<linearGradient id="paint59_linear_87_9506" x1="1460.85" y1="379.896" x2="1460.85" y2="194.115" gradientUnits="userSpaceOnUse">
<stop/>
<stop offset="0.5" stop-color="#00EBFF"/>
<stop offset="1"/>
</linearGradient>
<linearGradient id="paint60_linear_87_9506" x1="1566.91" y1="376.49" x2="1566.91" y2="197.521" gradientUnits="userSpaceOnUse">
<stop/>
<stop offset="0.5" stop-color="#00EBFF"/>
<stop offset="1"/>
</linearGradient>
<linearGradient id="paint61_linear_87_9506" x1="1612.72" y1="379.484" x2="1612.72" y2="194.527" gradientUnits="userSpaceOnUse">
<stop/>
<stop offset="0.5" stop-color="#00EBFF"/>
<stop offset="1"/>
</linearGradient>
<linearGradient id="paint62_linear_87_9506" x1="1722.71" y1="496.826" x2="1722.71" y2="79.592" gradientUnits="userSpaceOnUse">
<stop/>
<stop offset="0.5" stop-color="#00EBFF"/>
<stop offset="1"/>
</linearGradient>
<linearGradient id="paint63_linear_87_9506" x1="1766.16" y1="484.432" x2="1766.16" y2="87.2877" gradientUnits="userSpaceOnUse">
<stop/>
<stop offset="0.5" stop-color="#00EBFF"/>
<stop offset="1"/>
</linearGradient>
<linearGradient id="paint64_linear_87_9506" x1="1.83936" y1="439.071" x2="1.83936" y2="134.94" gradientUnits="userSpaceOnUse">
<stop/>
<stop offset="0.5" stop-color="#00EBFF"/>
<stop offset="1"/>
</linearGradient>
<linearGradient id="paint65_linear_87_9506" x1="45.2898" y1="398.752" x2="45.2898" y2="175.259" gradientUnits="userSpaceOnUse">
<stop/>
<stop offset="0.5" stop-color="#00EBFF"/>
<stop offset="1"/>
</linearGradient>
<linearGradient id="paint66_linear_87_9506" x1="70.6935" y1="406.536" x2="70.6935" y2="167.475" gradientUnits="userSpaceOnUse">
<stop/>
<stop offset="0.5" stop-color="#00EBFF"/>
<stop offset="1"/>
</linearGradient>
<linearGradient id="paint67_linear_87_9506" x1="115.28" y1="503.128" x2="115.28" y2="70.8828" gradientUnits="userSpaceOnUse">
<stop/>
<stop offset="0.5" stop-color="#00EBFF"/>
<stop offset="1"/>
</linearGradient>
<linearGradient id="paint68_linear_87_9506" x1="218.865" y1="439.128" x2="218.865" y2="134.883" gradientUnits="userSpaceOnUse">
<stop/>
<stop offset="0.5" stop-color="#00EBFF"/>
<stop offset="1"/>
</linearGradient>
<linearGradient id="paint69_linear_87_9506" x1="265.476" y1="428.364" x2="265.476" y2="145.647" gradientUnits="userSpaceOnUse">
<stop/>
<stop offset="0.5" stop-color="#00EBFF"/>
<stop offset="1"/>
</linearGradient>
<linearGradient id="paint70_linear_87_9506" x1="382.377" y1="462.157" x2="382.377" y2="113.864" gradientUnits="userSpaceOnUse">
<stop/>
<stop offset="0.5" stop-color="#00EBFF"/>
<stop offset="1"/>
</linearGradient>
<linearGradient id="paint71_linear_87_9506" x1="430.64" y1="463.671" x2="430.64" y2="108.29" gradientUnits="userSpaceOnUse">
<stop/>
<stop offset="0.5" stop-color="#00EBFF"/>
<stop offset="1"/>
</linearGradient>
<linearGradient id="paint72_linear_87_9506" x1="332.708" y1="524.867" x2="332.708" y2="49.144" gradientUnits="userSpaceOnUse">
<stop/>
<stop offset="0.5" stop-color="#00EBFF"/>
<stop offset="1"/>
</linearGradient>
<linearGradient id="paint73_linear_87_9506" x1="380.529" y1="383.862" x2="380.529" y2="190.149" gradientUnits="userSpaceOnUse">
<stop/>
<stop offset="0.5" stop-color="#00EBFF"/>
<stop offset="1"/>
</linearGradient>
<linearGradient id="paint74_linear_87_9506" x1="408.314" y1="356.602" x2="408.314" y2="217.409" gradientUnits="userSpaceOnUse">
<stop/>
<stop offset="0.5" stop-color="#00EBFF"/>
<stop offset="1"/>
</linearGradient>
<linearGradient id="paint75_linear_87_9506" x1="456.79" y1="559.6" x2="456.79" y2="14.4109" gradientUnits="userSpaceOnUse">
<stop/>
<stop offset="0.5" stop-color="#00EBFF"/>
<stop offset="1"/>
</linearGradient>
<linearGradient id="paint76_linear_87_9506" x1="568.065" y1="372.25" x2="568.065" y2="201.761" gradientUnits="userSpaceOnUse">
<stop/>
<stop offset="0.5" stop-color="#00EBFF"/>
<stop offset="1"/>
</linearGradient>
<linearGradient id="paint77_linear_87_9506" x1="617.565" y1="411.897" x2="617.565" y2="162.114" gradientUnits="userSpaceOnUse">
<stop/>
<stop offset="0.5" stop-color="#00EBFF"/>
<stop offset="1"/>
</linearGradient>
<linearGradient id="paint78_linear_87_9506" x1="740.278" y1="504.611" x2="740.278" y2="71.8961" gradientUnits="userSpaceOnUse">
<stop/>
<stop offset="0.5" stop-color="#00EBFF"/>
<stop offset="1"/>
</linearGradient>
<linearGradient id="paint79_linear_87_9506" x1="790.374" y1="503.092" x2="790.374" y2="68.4112" gradientUnits="userSpaceOnUse">
<stop/>
<stop offset="0.5" stop-color="#00EBFF"/>
<stop offset="1"/>
</linearGradient>
<linearGradient id="paint80_linear_87_9506" x1="438.1" y1="486.786" x2="438.1" y2="87.2249" gradientUnits="userSpaceOnUse">
<stop/>
<stop offset="0.5" stop-color="#00EBFF"/>
<stop offset="1"/>
</linearGradient>
<linearGradient id="paint81_linear_87_9506" x1="486.803" y1="450.883" x2="486.803" y2="123.128" gradientUnits="userSpaceOnUse">
<stop/>
<stop offset="0.5" stop-color="#00EBFF"/>
<stop offset="1"/>
</linearGradient>
<linearGradient id="paint82_linear_87_9506" x1="515.056" y1="539.691" x2="515.056" y2="34.3202" gradientUnits="userSpaceOnUse">
<stop/>
<stop offset="0.5" stop-color="#00EBFF"/>
<stop offset="1"/>
</linearGradient>
<linearGradient id="paint83_linear_87_9506" x1="564.268" y1="385.924" x2="564.268" y2="188.087" gradientUnits="userSpaceOnUse">
<stop/>
<stop offset="0.5" stop-color="#00EBFF"/>
<stop offset="1"/>
</linearGradient>
<linearGradient id="paint84_linear_87_9506" x1="676.874" y1="460.465" x2="676.874" y2="113.546" gradientUnits="userSpaceOnUse">
<stop/>
<stop offset="0.5" stop-color="#00EBFF"/>
<stop offset="1"/>
</linearGradient>
<linearGradient id="paint85_linear_87_9506" x1="726.81" y1="540.557" x2="726.81" y2="33.4539" gradientUnits="userSpaceOnUse">
<stop/>
<stop offset="0.5" stop-color="#00EBFF"/>
<stop offset="1"/>
</linearGradient>
<linearGradient id="paint86_linear_87_9506" x1="850.203" y1="367.949" x2="850.203" y2="206.991" gradientUnits="userSpaceOnUse">
<stop/>
<stop offset="0.5" stop-color="#00EBFF"/>
<stop offset="1"/>
</linearGradient>
<linearGradient id="paint87_linear_87_9506" x1="900.415" y1="367.047" x2="900.415" y2="206.036" gradientUnits="userSpaceOnUse">
<stop/>
<stop offset="0.5" stop-color="#00EBFF"/>
<stop offset="1"/>
</linearGradient>
<linearGradient id="paint88_linear_87_9506" x1="798.089" y1="574.011" x2="798.089" y2="0" gradientUnits="userSpaceOnUse">
<stop/>
<stop offset="0.5" stop-color="#00EBFF"/>
<stop offset="1"/>
</linearGradient>
<linearGradient id="paint89_linear_87_9506" x1="848.272" y1="394.473" x2="848.272" y2="179.537" gradientUnits="userSpaceOnUse">
<stop/>
<stop offset="0.5" stop-color="#00EBFF"/>
<stop offset="1"/>
</linearGradient>
<linearGradient id="paint90_linear_87_9506" x1="877.24" y1="467.39" x2="877.24" y2="106.621" gradientUnits="userSpaceOnUse">
<stop/>
<stop offset="0.5" stop-color="#00EBFF"/>
<stop offset="1"/>
</linearGradient>
<linearGradient id="paint91_linear_87_9506" x1="927.451" y1="393.899" x2="927.451" y2="180.112" gradientUnits="userSpaceOnUse">
<stop/>
<stop offset="0.5" stop-color="#00EBFF"/>
<stop offset="1"/>
</linearGradient>
<linearGradient id="paint92_linear_87_9506" x1="1041.19" y1="557.24" x2="1041.19" y2="16.7711" gradientUnits="userSpaceOnUse">
<stop/>
<stop offset="0.5" stop-color="#00EBFF"/>
<stop offset="1"/>
</linearGradient>
<linearGradient id="paint93_linear_87_9506" x1="1091.13" y1="385.594" x2="1091.13" y2="188.417" gradientUnits="userSpaceOnUse">
<stop/>
<stop offset="0.5" stop-color="#00EBFF"/>
<stop offset="1"/>
</linearGradient>
<linearGradient id="paint94_linear_87_9506" x1="1213.22" y1="550.395" x2="1213.22" y2="26.6383" gradientUnits="userSpaceOnUse">
<stop/>
<stop offset="0.5" stop-color="#00EBFF"/>
<stop offset="1"/>
</linearGradient>
<linearGradient id="paint95_linear_87_9506" x1="1262.37" y1="543.7" x2="1262.37" y2="27.3321" gradientUnits="userSpaceOnUse">
<stop/>
<stop offset="0.5" stop-color="#00EBFF"/>
<stop offset="1"/>
</linearGradient>
<linearGradient id="paint96_linear_87_9506" x1="358.402" y1="425.907" x2="358.402" y2="148.104" gradientUnits="userSpaceOnUse">
<stop/>
<stop offset="0.5" stop-color="#00EBFF"/>
<stop offset="1"/>
</linearGradient>
<linearGradient id="paint97_linear_87_9506" x1="406.458" y1="500.454" x2="406.458" y2="73.5576" gradientUnits="userSpaceOnUse">
<stop/>
<stop offset="0.5" stop-color="#00EBFF"/>
<stop offset="1"/>
</linearGradient>
<linearGradient id="paint98_linear_87_9506" x1="434.369" y1="487.014" x2="434.369" y2="86.9972" gradientUnits="userSpaceOnUse">
<stop/>
<stop offset="0.5" stop-color="#00EBFF"/>
<stop offset="1"/>
</linearGradient>
<linearGradient id="paint99_linear_87_9506" x1="483.044" y1="558.849" x2="483.044" y2="15.162" gradientUnits="userSpaceOnUse">
<stop/>
<stop offset="0.5" stop-color="#00EBFF"/>
<stop offset="1"/>
</linearGradient>
<linearGradient id="paint100_linear_87_9506" x1="594.689" y1="480.056" x2="594.689" y2="93.955" gradientUnits="userSpaceOnUse">
<stop/>
<stop offset="0.5" stop-color="#00EBFF"/>
<stop offset="1"/>
</linearGradient>
<linearGradient id="paint101_linear_87_9506" x1="644.315" y1="487.543" x2="644.315" y2="86.4677" gradientUnits="userSpaceOnUse">
<stop/>
<stop offset="0.5" stop-color="#00EBFF"/>
<stop offset="1"/>
</linearGradient>
<linearGradient id="paint102_linear_87_9506" x1="767.241" y1="493.593" x2="767.241" y2="82.7885" gradientUnits="userSpaceOnUse">
<stop/>
<stop offset="0.5" stop-color="#00EBFF"/>
<stop offset="1"/>
</linearGradient>
<linearGradient id="paint103_linear_87_9506" x1="817.384" y1="491.938" x2="817.384" y2="79.6954" gradientUnits="userSpaceOnUse">
<stop/>
<stop offset="0.5" stop-color="#00EBFF"/>
<stop offset="1"/>
</linearGradient>
<linearGradient id="paint104_linear_87_9506" x1="715.273" y1="374.388" x2="715.273" y2="199.623" gradientUnits="userSpaceOnUse">
<stop/>
<stop offset="0.5" stop-color="#00EBFF"/>
<stop offset="1"/>
</linearGradient>
<linearGradient id="paint105_linear_87_9506" x1="765.313" y1="536.266" x2="765.313" y2="37.7454" gradientUnits="userSpaceOnUse">
<stop/>
<stop offset="0.5" stop-color="#00EBFF"/>
<stop offset="1"/>
</linearGradient>
<linearGradient id="paint106_linear_87_9506" x1="794.231" y1="393.964" x2="794.231" y2="180.048" gradientUnits="userSpaceOnUse">
<stop/>
<stop offset="0.5" stop-color="#00EBFF"/>
<stop offset="1"/>
</linearGradient>
<linearGradient id="paint107_linear_87_9506" x1="844.41" y1="467.414" x2="844.41" y2="106.597" gradientUnits="userSpaceOnUse">
<stop/>
<stop offset="0.5" stop-color="#00EBFF"/>
<stop offset="1"/>
</linearGradient>
<linearGradient id="paint108_linear_87_9506" x1="958.334" y1="488.599" x2="958.334" y2="85.4121" gradientUnits="userSpaceOnUse">
<stop/>
<stop offset="0.5" stop-color="#00EBFF"/>
<stop offset="1"/>
</linearGradient>
<linearGradient id="paint109_linear_87_9506" x1="1008.47" y1="411.017" x2="1008.47" y2="162.994" gradientUnits="userSpaceOnUse">
<stop/>
<stop offset="0.5" stop-color="#00EBFF"/>
<stop offset="1"/>
</linearGradient>
<linearGradient id="paint110_linear_87_9506" x1="1131.33" y1="471.75" x2="1131.33" y2="104.38" gradientUnits="userSpaceOnUse">
<stop/>
<stop offset="0.5" stop-color="#00EBFF"/>
<stop offset="1"/>
</linearGradient>
<linearGradient id="paint111_linear_87_9506" x1="1180.92" y1="467.692" x2="1180.92" y2="104.222" gradientUnits="userSpaceOnUse">
<stop/>
<stop offset="0.5" stop-color="#00EBFF"/>
<stop offset="1"/>
</linearGradient>
<linearGradient id="paint112_linear_87_9506" x1="825.104" y1="416.165" x2="825.104" y2="157.846" gradientUnits="userSpaceOnUse">
<stop/>
<stop offset="0.5" stop-color="#00EBFF"/>
<stop offset="1"/>
</linearGradient>
<linearGradient id="paint113_linear_87_9506" x1="875.308" y1="444.592" x2="875.308" y2="129.419" gradientUnits="userSpaceOnUse">
<stop/>
<stop offset="0.5" stop-color="#00EBFF"/>
<stop offset="1"/>
</linearGradient>
<linearGradient id="paint114_linear_87_9506" x1="904.277" y1="388.728" x2="904.277" y2="185.283" gradientUnits="userSpaceOnUse">
<stop/>
<stop offset="0.5" stop-color="#00EBFF"/>
<stop offset="1"/>
</linearGradient>
<linearGradient id="paint115_linear_87_9506" x1="954.474" y1="489.942" x2="954.474" y2="84.0691" gradientUnits="userSpaceOnUse">
<stop/>
<stop offset="0.5" stop-color="#00EBFF"/>
<stop offset="1"/>
</linearGradient>
<linearGradient id="paint116_linear_87_9506" x1="1068.1" y1="505.341" x2="1068.1" y2="68.6694" gradientUnits="userSpaceOnUse">
<stop/>
<stop offset="0.5" stop-color="#00EBFF"/>
<stop offset="1"/>
</linearGradient>
<linearGradient id="paint117_linear_87_9506" x1="1117.94" y1="482.891" x2="1117.94" y2="91.12" gradientUnits="userSpaceOnUse">
<stop/>
<stop offset="0.5" stop-color="#00EBFF"/>
<stop offset="1"/>
</linearGradient>
<linearGradient id="paint118_linear_87_9506" x1="1239.72" y1="368.49" x2="1239.72" y2="206.456" gradientUnits="userSpaceOnUse">
<stop/>
<stop offset="0.5" stop-color="#00EBFF"/>
<stop offset="1"/>
</linearGradient>
<linearGradient id="paint119_linear_87_9506" x1="1288.71" y1="366.324" x2="1288.71" y2="206.767" gradientUnits="userSpaceOnUse">
<stop/>
<stop offset="0.5" stop-color="#00EBFF"/>
<stop offset="1"/>
</linearGradient>
<linearGradient id="paint120_linear_87_9506" x1="1188.53" y1="482.198" x2="1188.53" y2="91.813" gradientUnits="userSpaceOnUse">
<stop/>
<stop offset="0.5" stop-color="#00EBFF"/>
<stop offset="1"/>
</linearGradient>
<linearGradient id="paint121_linear_87_9506" x1="1237.83" y1="478.976" x2="1237.83" y2="95.0341" gradientUnits="userSpaceOnUse">
<stop/>
<stop offset="0.5" stop-color="#00EBFF"/>
<stop offset="1"/>
</linearGradient>
<linearGradient id="paint122_linear_87_9506" x1="1266.14" y1="372.078" x2="1266.14" y2="201.933" gradientUnits="userSpaceOnUse">
<stop/>
<stop offset="0.5" stop-color="#00EBFF"/>
<stop offset="1"/>
</linearGradient>
<linearGradient id="paint123_linear_87_9506" x1="1314.95" y1="519.565" x2="1314.95" y2="54.4451" gradientUnits="userSpaceOnUse">
<stop/>
<stop offset="0.5" stop-color="#00EBFF"/>
<stop offset="1"/>
</linearGradient>
<linearGradient id="paint124_linear_87_9506" x1="1424.3" y1="425.071" x2="1424.3" y2="148.94" gradientUnits="userSpaceOnUse">
<stop/>
<stop offset="0.5" stop-color="#00EBFF"/>
<stop offset="1"/>
</linearGradient>
<linearGradient id="paint125_linear_87_9506" x1="1471.76" y1="527.743" x2="1471.76" y2="46.2678" gradientUnits="userSpaceOnUse">
<stop/>
<stop offset="0.5" stop-color="#00EBFF"/>
<stop offset="1"/>
</linearGradient>
<linearGradient id="paint126_linear_87_9506" x1="1586.36" y1="443.302" x2="1586.36" y2="132.502" gradientUnits="userSpaceOnUse">
<stop/>
<stop offset="0.5" stop-color="#00EBFF"/>
<stop offset="1"/>
</linearGradient>
<linearGradient id="paint127_linear_87_9506" x1="1631.91" y1="436.04" x2="1631.91" y2="136.242" gradientUnits="userSpaceOnUse">
<stop/>
<stop offset="0.5" stop-color="#00EBFF"/>
<stop offset="1"/>
</linearGradient>
</defs>
</svg>
