<svg width="82" height="71" viewBox="0 0 82 71" fill="none" xmlns="http://www.w3.org/2000/svg">
<path d="M36.6242 0.150732C45.9992 0.150732 55.3992 0.150732 64.7742 0.150732C72.9992 0.150732 79.6492 5.60073 81.2242 13.6757C81.4242 14.6757 81.4992 15.7257 81.4992 16.7507C81.5242 30.0757 81.5242 43.3757 81.4992 56.7007C81.4992 62.1257 77.6242 66.0007 72.1992 66.0257C71.5992 66.0257 71.1992 66.1757 70.8242 66.7007C69.0742 69.1757 66.6242 70.5007 63.5992 70.5007C44.8492 70.5257 26.1242 70.5257 7.37424 70.5007C3.62424 70.5007 0.649243 67.5507 0.649243 63.8007C0.624243 44.8257 0.624243 25.8757 0.649243 6.90073C0.649243 3.05073 3.62424 0.150732 7.52424 0.125732C17.2242 0.125732 26.9242 0.150732 36.6242 0.150732ZM3.64924 61.5507C3.64924 62.3257 3.64924 63.0007 3.64924 63.7007C3.67424 65.9257 5.24924 67.5507 7.47424 67.5507C26.1492 67.5507 44.8492 67.5757 63.5242 67.5507C66.8992 67.5507 69.4742 64.9257 69.4992 61.5257C69.5242 58.2757 69.4992 55.0257 69.4992 51.8007C69.4992 51.6007 69.4742 51.3757 69.4742 51.1757C62.1242 50.6507 59.0242 45.0257 59.0242 40.7507C59.0242 38.2007 59.7992 35.9007 61.4492 33.9507C63.5242 31.4757 66.2242 30.2757 69.4992 30.1257C69.4992 29.7757 69.4992 29.4507 69.4992 29.1507C69.4992 26.1757 69.4992 23.2257 69.4992 20.2507C69.4992 16.1257 67.0492 13.6757 62.9242 13.6757C45.0492 13.6757 27.1742 13.6757 9.29924 13.6757C7.37424 13.6757 5.42424 13.7507 3.67424 12.5757C3.67424 15.0007 3.67424 17.3007 3.67424 19.6507C6.27424 19.6507 8.82424 19.8507 11.3242 19.6007C14.7242 19.2507 17.5492 20.1257 19.8742 22.6507C20.3492 23.1757 20.8492 23.2507 21.5992 22.9507C23.4242 22.2007 25.4742 22.8507 26.6992 24.4507C27.8742 25.9757 27.8992 28.1257 26.8242 29.7007C25.6992 31.3257 23.6742 32.0257 21.7992 31.4507C19.9742 30.9007 18.4492 29.1507 18.6992 27.2757C18.8992 25.7507 18.2742 25.0007 17.1742 24.3007C16.6742 23.9757 16.2742 23.5007 15.7742 23.2257C15.3242 22.9757 14.7742 22.7007 14.2742 22.7007C11.0742 22.6507 7.84924 22.6757 4.62424 22.6757C4.32424 22.6757 4.02424 22.7007 3.64924 22.7257C3.64924 24.5007 3.64924 26.2007 3.64924 27.9257C3.64924 29.6507 3.64924 31.4007 3.64924 33.1757C5.64924 33.1757 7.49924 33.2007 9.37424 33.1507C9.64924 33.1507 9.99924 32.8257 10.1492 32.5757C11.1742 30.8507 13.0242 29.9007 14.8742 30.2507C16.9742 30.6507 18.5242 32.4007 18.6242 34.4507C18.7242 36.5257 17.3992 38.4007 15.3992 38.9757C13.3742 39.5757 11.2742 38.7257 10.1992 36.8507C10.0492 36.6007 9.82424 36.2257 9.64924 36.2007C7.67424 36.1507 5.67424 36.1757 3.72424 36.1757C3.72424 39.2507 3.72424 42.1757 3.72424 45.1257C3.89924 45.1507 3.97424 45.1507 4.07424 45.1507C5.72424 45.1507 7.37424 45.1257 9.02424 45.1757C9.62424 45.2007 9.92424 45.0007 10.2242 44.4507C11.1992 42.6507 13.2242 41.8007 15.1492 42.3007C17.1492 42.8007 18.5492 44.5257 18.5992 46.5507C18.6242 48.5757 17.2992 50.4007 15.3492 50.9507C13.3492 51.5257 11.2742 50.6757 10.1992 48.8757C10.0242 48.6007 9.74924 48.1757 9.49924 48.1757C7.57424 48.1257 5.64924 48.1507 3.69924 48.1507C3.69924 51.6757 3.69924 55.1257 3.69924 58.6257C6.24924 58.6257 8.74924 58.4257 11.2242 58.6757C14.0492 58.9507 16.2992 58.1507 18.2492 56.1507C18.6242 55.7507 18.8242 55.5007 18.7242 54.9007C18.1992 52.3007 20.2492 49.7757 22.8742 49.6507C24.6992 49.5757 26.4242 50.5757 27.1992 52.2257C27.9742 53.8757 27.6742 55.8507 26.4242 57.1757C25.1242 58.5507 23.2492 59.0257 21.4742 58.2757C20.8992 58.0257 20.5242 58.1257 20.0742 58.5007C19.0742 59.3507 18.0742 60.2007 16.9992 60.9507C16.4742 61.3007 15.7742 61.6007 15.1492 61.6007C11.3492 61.5757 7.57424 61.5507 3.64924 61.5507ZM78.5242 30.0507C78.5242 29.6007 78.5242 29.2757 78.5242 28.9257C78.5242 24.8507 78.5242 20.7507 78.5242 16.6757C78.5242 16.0507 78.4492 15.4257 78.3742 14.8257C77.6242 8.27573 71.7742 3.10073 64.7992 3.12573C45.8242 3.17573 26.8742 3.15073 7.89924 3.15073C7.67424 3.15073 7.47424 3.15073 7.24924 3.15073C4.74924 3.27573 3.09924 5.70073 3.87424 8.05073C4.42424 9.75073 5.74924 10.6257 7.74924 10.6257C26.2992 10.6257 44.8742 10.6257 63.4242 10.6257C68.5242 10.6257 72.4992 14.6007 72.5242 19.6757C72.5242 22.8007 72.5242 25.9257 72.5242 29.0257C72.5242 29.3507 72.5492 29.6757 72.5742 30.0257C74.5742 30.0507 76.4742 30.0507 78.5242 30.0507ZM78.4992 33.1257C78.1242 33.1007 77.8492 33.0757 77.5742 33.0757C74.9242 33.0757 72.2742 33.0757 69.6242 33.0757C65.3742 33.1007 62.0492 36.4007 62.0492 40.5757C62.0492 44.7257 65.3992 48.0257 69.6492 48.0507C72.2992 48.0507 74.9492 48.0507 77.5992 48.0507C77.8992 48.0507 78.1992 48.0257 78.4992 48.0007C78.4992 43.0257 78.4992 38.1257 78.4992 33.1257ZM72.5992 51.1007C72.5992 55.1257 72.5992 59.0507 72.5992 62.9757C75.1742 63.1007 77.9492 60.9757 78.2992 58.4507C78.5492 56.5257 78.4742 54.5507 78.5242 52.6007C78.5492 52.1257 78.5242 51.6257 78.5242 51.1007C76.4742 51.1007 74.5992 51.1007 72.5992 51.1007ZM24.6242 27.0757C24.6242 26.2507 23.9492 25.6007 23.1492 25.6007C22.2992 25.6007 21.5992 26.3007 21.6492 27.1507C21.6742 27.9507 22.3742 28.6007 23.1742 28.6007C23.9742 28.5757 24.6242 27.9007 24.6242 27.0757ZM15.6242 34.5757C15.6242 33.7507 14.9492 33.1007 14.1492 33.0757C13.3242 33.0757 12.6492 33.7257 12.6492 34.5257C12.6242 35.3757 13.3242 36.0757 14.1742 36.0507C14.9742 36.0757 15.6242 35.4007 15.6242 34.5757ZM15.6242 46.6007C15.6492 45.8007 14.9992 45.1007 14.1992 45.0507C13.3992 45.0257 12.6992 45.6507 12.6492 46.4507C12.5992 47.3007 13.2742 48.0257 14.1242 48.0257C14.9242 48.0757 15.5992 47.4257 15.6242 46.6007ZM24.6242 54.0257C24.6242 53.2007 23.9492 52.5507 23.1492 52.5507C22.3242 52.5507 21.6492 53.2007 21.6492 54.0257C21.6242 54.8757 22.3242 55.5757 23.1742 55.5507C23.9742 55.5257 24.6242 54.8507 24.6242 54.0257Z" fill="#021B1F"/>
<path d="M3.64967 61.5506C7.57467 61.5506 11.3497 61.5756 15.0997 61.5256C15.7247 61.5256 16.4247 61.2256 16.9497 60.8756C18.0247 60.1506 19.0247 59.2756 20.0247 58.4256C20.4747 58.0506 20.8497 57.9506 21.4247 58.2006C23.1997 58.9506 25.0997 58.5006 26.3747 57.1006C27.6247 55.7506 27.9247 53.8006 27.1497 52.1506C26.3747 50.5006 24.6747 49.5006 22.8247 49.5756C20.1997 49.7006 18.1497 52.2256 18.6747 54.8256C18.7997 55.4256 18.5747 55.6756 18.1997 56.0756C16.2747 58.0756 14.0247 58.9006 11.1747 58.6006C8.69967 58.3506 6.19967 58.5506 3.64967 58.5506C3.64967 55.0506 3.64967 51.6006 3.64967 48.0756C5.59967 48.0756 7.52467 48.0506 9.44967 48.1006C9.69967 48.1006 9.99967 48.5256 10.1497 48.8006C11.2247 50.6006 13.2997 51.4506 15.2997 50.8756C17.2497 50.3006 18.5747 48.5006 18.5497 46.4756C18.5247 44.4506 17.1247 42.7256 15.0997 42.2256C13.1747 41.7256 11.1247 42.5756 10.1747 44.3756C9.87467 44.9256 9.57467 45.1256 8.97467 45.1006C7.32467 45.0506 5.67467 45.0756 4.02467 45.0756C3.92467 45.0756 3.84967 45.0506 3.67467 45.0506C3.67467 42.1006 3.67467 39.1756 3.67467 36.1007C5.62467 36.1007 7.59967 36.0757 9.59967 36.1257C9.79967 36.1257 10.0247 36.5257 10.1497 36.7757C11.2247 38.6506 13.3247 39.5006 15.3497 38.9006C17.3247 38.3256 18.6497 36.4507 18.5747 34.3757C18.4747 32.3007 16.9247 30.5507 14.8247 30.1757C12.9747 29.8257 11.1247 30.7757 10.0997 32.5007C9.94967 32.7757 9.59967 33.0757 9.32467 33.0757C7.44967 33.1257 5.59967 33.1007 3.59967 33.1007C3.59967 31.3257 3.59967 29.5757 3.59967 27.8507C3.59967 26.1507 3.59967 24.4257 3.59967 22.6507C3.97467 22.6257 4.27467 22.6007 4.57467 22.6007C7.79967 22.6007 10.9997 22.5757 14.2247 22.6257C14.7247 22.6257 15.2747 22.9007 15.7247 23.1507C16.2247 23.4507 16.6247 23.9007 17.1247 24.2257C18.2247 24.9257 18.8247 25.6757 18.6497 27.2007C18.4247 29.0757 19.9247 30.8257 21.7497 31.3757C23.6497 31.9507 25.6497 31.2507 26.7747 29.6257C27.8747 28.0507 27.8247 25.9007 26.6497 24.3757C25.4247 22.7757 23.3997 22.1257 21.5497 22.8757C20.8247 23.1757 20.3247 23.1257 19.8247 22.5757C17.5247 20.0507 14.6997 19.1757 11.2747 19.5257C8.77467 19.7757 6.22467 19.5757 3.62467 19.5757C3.62467 17.2257 3.62467 14.9257 3.62467 12.5007C5.37467 13.6757 7.32467 13.6007 9.24967 13.6007C27.1247 13.6007 44.9997 13.6007 62.8747 13.6007C66.9997 13.6007 69.4497 16.0507 69.4497 20.1757C69.4497 23.1507 69.4497 26.1007 69.4497 29.0757C69.4497 29.3757 69.4497 29.6757 69.4497 30.0507C66.1747 30.2007 63.4747 31.4007 61.3997 33.8757C59.7497 35.8507 58.9747 38.1256 58.9747 40.6756C58.9747 44.9506 62.0747 50.5756 69.4247 51.1006C69.4247 51.3006 69.4497 51.5256 69.4497 51.7256C69.4497 54.9756 69.4747 58.2256 69.4497 61.4506C69.4247 64.8256 66.8247 67.4755 63.4747 67.4755C44.7997 67.5005 26.0997 67.4755 7.42467 67.4755C5.19967 67.4755 3.62467 65.8756 3.59967 63.6256C3.64967 63.0006 3.64967 62.3256 3.64967 61.5506ZM41.0497 55.5506C49.3247 55.5756 56.0247 48.9006 56.0497 40.6006C56.0747 32.4257 49.3747 25.6507 41.2497 25.6257C32.8997 25.6007 26.1247 32.2257 26.0997 40.4506C26.0747 48.8006 32.7247 55.5256 41.0497 55.5506Z" fill="url(#paint0_linear_82_9278)"/>
<path d="M78.4985 33.1257C78.4985 38.1257 78.4985 43.0007 78.4985 48.0007C78.1985 48.0257 77.8985 48.0507 77.5985 48.0507C74.9485 48.0507 72.2985 48.0507 69.6485 48.0507C65.3985 48.0257 62.0485 44.7257 62.0485 40.5757C62.0485 36.4007 65.3985 33.1007 69.6235 33.0757C72.2735 33.0757 74.9235 33.0757 77.5735 33.0757C77.8485 33.1007 78.1235 33.1257 78.4985 33.1257ZM74.0235 40.5507C74.0235 38.1007 71.9485 36.0757 69.4735 36.0757C67.0735 36.1007 65.0485 38.1757 65.0485 40.6007C65.0735 43.0257 67.0985 45.0507 69.5235 45.0757C71.9735 45.0757 74.0235 43.0257 74.0235 40.5507Z" fill="#00E0FF"/>
<path d="M78.5242 30.0482C76.4742 30.0482 74.5992 30.0482 72.5742 30.0482C72.5491 29.6982 72.5242 29.3732 72.5242 29.0482C72.5242 25.9232 72.5242 22.7982 72.5242 19.6982C72.4992 14.6232 68.5242 10.6482 63.4242 10.6482C44.8742 10.6482 26.2992 10.6482 7.74916 10.6482C5.74916 10.6482 4.42416 9.77316 3.84916 8.07315C3.07416 5.67315 4.74916 3.27314 7.24916 3.14814C7.47415 3.14814 7.67415 3.14814 7.89915 3.14814C26.8742 3.14814 45.8242 3.17314 64.7992 3.12314C71.7492 3.09814 77.6242 8.27315 78.3742 14.8232C78.4492 15.4482 78.5242 16.0482 78.5242 16.6732C78.5492 20.7482 78.5242 24.8482 78.5242 28.9232C78.5242 29.2732 78.5242 29.5982 78.5242 30.0482Z" fill="url(#paint1_linear_82_9278)"/>
<path d="M72.5984 51.1023C74.5734 51.1023 76.4734 51.1023 78.4985 51.1023C78.4985 51.6273 78.4985 52.1023 78.4985 52.6023C78.4484 54.5523 78.5235 56.5273 78.2735 58.4523C77.9485 60.9773 75.1484 63.1023 72.5734 62.9773C72.5984 59.0523 72.5984 55.1023 72.5984 51.1023Z" fill="url(#paint2_linear_82_9278)"/>
<path d="M24.6251 27.0759C24.6251 27.9009 23.9751 28.576 23.1751 28.576C22.3751 28.601 21.6751 27.9509 21.6501 27.1259C21.6251 26.2758 22.3001 25.5758 23.1501 25.5758C23.9501 25.6008 24.6001 26.2758 24.6251 27.0759Z" fill="url(#paint3_linear_82_9278)"/>
<path d="M15.6239 34.5751C15.6239 35.4001 14.9739 36.0751 14.1489 36.0751C13.2989 36.1001 12.5989 35.4001 12.6239 34.5501C12.6489 33.7251 13.3239 33.0751 14.1239 33.1001C14.9739 33.1001 15.6239 33.7501 15.6239 34.5751Z" fill="url(#paint4_linear_82_9278)"/>
<path d="M15.6242 46.601C15.5992 47.4261 14.9242 48.0761 14.0992 48.0511C13.2492 48.0261 12.5743 47.301 12.6243 46.476C12.6743 45.676 13.3742 45.0259 14.1742 45.0759C14.9992 45.1009 15.6492 45.801 15.6242 46.601Z" fill="url(#paint5_linear_82_9278)"/>
<path d="M24.6238 54.0235C24.6238 54.8485 23.9738 55.5235 23.1738 55.5235C22.3238 55.5485 21.6238 54.8485 21.6488 53.9985C21.6738 53.1734 22.3488 52.5234 23.1488 52.5234C23.9488 52.5484 24.5988 53.2234 24.6238 54.0235Z" fill="url(#paint6_linear_82_9278)"/>
<path d="M41.0498 55.5519C32.7248 55.5269 26.0748 48.802 26.1248 40.427C26.1498 32.2021 32.9248 25.5771 41.2748 25.6021C49.3999 25.6271 56.0999 32.4271 56.0749 40.577C56.0249 48.902 49.3249 55.5769 41.0498 55.5519ZM53.0749 40.627C53.0999 34.0521 47.7249 28.6021 41.1748 28.5771C34.5498 28.5521 29.1248 33.9271 29.1248 40.527C29.1248 47.102 34.4748 52.477 41.0498 52.527C47.5749 52.602 53.0499 47.177 53.0749 40.627Z" fill="#021B1F"/>
<path d="M74.0249 40.5507C74.0249 43.0257 71.9749 45.0757 69.525 45.0757C67.1 45.0757 65.075 43.0257 65.05 40.6007C65.025 38.1757 67.075 36.1007 69.475 36.0757C71.9499 36.0757 74.0249 38.1007 74.0249 40.5507ZM71.025 40.5507C71 39.7257 70.325 39.0757 69.525 39.0757C68.675 39.0757 68 39.8007 68.025 40.6507C68.075 41.4507 68.775 42.1007 69.575 42.0757C70.4 42.0507 71.0499 41.3507 71.025 40.5507Z" fill="#021B1F"/>
<path d="M53.0747 40.6247C53.0497 47.1746 47.5997 52.5746 41.0497 52.5496C34.4747 52.4996 29.0997 47.1246 29.1247 40.5497C29.1247 33.9497 34.5497 28.5747 41.1747 28.5997C47.6997 28.6247 53.0747 34.0747 53.0747 40.6247ZM48.5747 40.9997C48.5747 39.8747 48.5497 38.7497 48.5747 37.6247C48.5997 36.8497 48.2747 36.3247 47.6247 35.9497C45.6997 34.8497 43.7997 33.7497 41.8747 32.6247C41.2247 32.2497 40.5997 32.2247 39.9497 32.6247C38.0497 33.7497 36.1247 34.8497 34.1997 35.9247C33.5497 36.2997 33.1997 36.8247 33.2247 37.5997C33.2497 39.8247 33.2497 42.0246 33.2247 44.2496C33.2247 45.0246 33.5247 45.5496 34.1997 45.9246C36.1247 47.0246 38.0247 48.1246 39.9247 49.2496C40.5747 49.6496 41.1997 49.6496 41.8497 49.2496C43.7497 48.1246 45.6747 47.0246 47.5997 45.9496C48.2997 45.5496 48.5997 44.9996 48.5747 44.1746C48.5497 43.0996 48.5747 42.0496 48.5747 40.9997Z" fill="white"/>
<path d="M71.0233 40.5508C71.0483 41.3508 70.3983 42.0509 69.5733 42.0759C68.7733 42.1009 68.0733 41.4508 68.0233 40.6508C67.9733 39.8007 68.6733 39.0757 69.5233 39.0757C70.3483 39.0757 71.0233 39.7257 71.0233 40.5508Z" fill="url(#paint7_linear_82_9278)"/>
<path d="M48.5747 41.0008C48.5747 42.0508 48.5497 43.1258 48.5747 44.1758C48.5997 44.9758 48.2997 45.5508 47.5997 45.9508C45.6747 47.0508 43.7747 48.1508 41.8497 49.2508C41.1997 49.6508 40.5747 49.6258 39.9247 49.2508C38.0247 48.1258 36.0997 47.0258 34.1997 45.9258C33.5497 45.5508 33.2247 45.0258 33.2247 44.2508C33.2497 42.0258 33.2497 39.8257 33.2247 37.6007C33.2247 36.8257 33.5497 36.3007 34.1997 35.9257C36.1247 34.8257 38.0247 33.7257 39.9497 32.6257C40.5997 32.2257 41.2247 32.2507 41.8747 32.6257C43.7747 33.7507 45.6997 34.8507 47.6247 35.9507C48.2747 36.3257 48.5997 36.8507 48.5747 37.6257C48.5497 38.7507 48.5747 39.8757 48.5747 41.0008ZM37.5497 37.4757C38.6497 38.1257 39.5997 38.6757 40.5747 39.2257C40.7247 39.3007 41.0247 39.3257 41.1747 39.2507C42.1747 38.7007 43.1497 38.1257 44.2497 37.5007C43.1497 36.8507 42.1747 36.2757 41.1997 35.7507C41.0497 35.6757 40.8247 35.6257 40.6997 35.7007C39.6997 36.2257 38.6747 36.8257 37.5497 37.4757ZM36.2247 40.1757C36.2247 41.2508 36.1997 42.1758 36.2497 43.1258C36.2497 43.3508 36.3997 43.6758 36.5747 43.8008C37.4497 44.3508 38.3747 44.8758 39.3247 45.4008C39.7747 42.2008 39.7747 42.2008 37.1997 40.7007C36.8997 40.5507 36.6497 40.4257 36.2247 40.1757ZM42.3997 45.4758C43.4497 44.8758 44.3747 44.3258 45.2997 43.7758C45.4247 43.7008 45.5497 43.5008 45.5747 43.3508C45.5997 42.3508 45.5747 41.3508 45.5747 40.2007C44.5247 40.8007 43.5997 41.3258 42.7247 41.8758C42.5747 41.9758 42.4247 42.2008 42.4247 42.3758C42.3747 43.3258 42.3997 44.3258 42.3997 45.4758Z" fill="#021B1F"/>
<path d="M37.5489 37.4765C38.6739 36.8265 39.6739 36.2265 40.6989 35.6765C40.8239 35.6015 41.0739 35.6515 41.1989 35.7265C42.1739 36.2765 43.1239 36.8515 44.2489 37.4765C43.1489 38.1264 42.1739 38.7014 41.1739 39.2264C41.0239 39.3014 40.7489 39.3014 40.5739 39.2014C39.6239 38.6764 38.6489 38.1014 37.5489 37.4765Z" fill="url(#paint8_linear_82_9278)"/>
<path d="M36.2241 40.1773C36.6491 40.4023 36.8991 40.5523 37.1741 40.7023C39.7491 42.2023 39.7491 42.2023 39.2991 45.4024C38.3741 44.8524 37.4491 44.3524 36.5491 43.8024C36.3741 43.6774 36.2241 43.3524 36.2241 43.1274C36.1991 42.2023 36.2241 41.2523 36.2241 40.1773Z" fill="url(#paint9_linear_82_9278)"/>
<path d="M42.3993 45.4773C42.3993 44.3273 42.3743 43.3273 42.4243 42.3523C42.4243 42.1773 42.5743 41.9523 42.7243 41.8523C43.6243 41.3023 44.5244 40.8023 45.5744 40.1773C45.5744 41.3273 45.5744 42.3273 45.5744 43.3273C45.5744 43.4773 45.4494 43.6773 45.2994 43.7523C44.3744 44.3273 43.4493 44.8773 42.3993 45.4773Z" fill="url(#paint10_linear_82_9278)"/>
<defs>
<linearGradient id="paint0_linear_82_9278" x1="36.5302" y1="12.5007" x2="36.5302" y2="67.4867" gradientUnits="userSpaceOnUse">
<stop stop-color="#00BED8"/>
<stop offset="1" stop-color="#008294"/>
</linearGradient>
<linearGradient id="paint1_linear_82_9278" x1="41.0968" y1="3.12305" x2="41.0968" y2="62.9825" gradientUnits="userSpaceOnUse">
<stop stop-color="#00BED8"/>
<stop offset="1" stop-color="#008294"/>
</linearGradient>
<linearGradient id="paint2_linear_82_9278" x1="41.0968" y1="3.12305" x2="41.0968" y2="62.9825" gradientUnits="userSpaceOnUse">
<stop stop-color="#00BED8"/>
<stop offset="1" stop-color="#008294"/>
</linearGradient>
<linearGradient id="paint3_linear_82_9278" x1="23.1373" y1="25.5758" x2="23.1373" y2="28.5767" gradientUnits="userSpaceOnUse">
<stop stop-color="#00BED8"/>
<stop offset="1" stop-color="#008294"/>
</linearGradient>
<linearGradient id="paint4_linear_82_9278" x1="14.1236" y1="33.0994" x2="14.1236" y2="36.0757" gradientUnits="userSpaceOnUse">
<stop stop-color="#00BED8"/>
<stop offset="1" stop-color="#008294"/>
</linearGradient>
<linearGradient id="paint5_linear_82_9278" x1="14.1233" y1="45.0732" x2="14.1233" y2="48.0518" gradientUnits="userSpaceOnUse">
<stop stop-color="#00BED8"/>
<stop offset="1" stop-color="#008294"/>
</linearGradient>
<linearGradient id="paint6_linear_82_9278" x1="23.136" y1="52.5234" x2="23.136" y2="55.5241" gradientUnits="userSpaceOnUse">
<stop stop-color="#00BED8"/>
<stop offset="1" stop-color="#008294"/>
</linearGradient>
<linearGradient id="paint7_linear_82_9278" x1="69.5224" y1="39.0757" x2="69.5224" y2="42.0766" gradientUnits="userSpaceOnUse">
<stop stop-color="#00BED8"/>
<stop offset="1" stop-color="#008294"/>
</linearGradient>
<linearGradient id="paint8_linear_82_9278" x1="40.8937" y1="35.6394" x2="40.8937" y2="45.4773" gradientUnits="userSpaceOnUse">
<stop stop-color="#00BED8"/>
<stop offset="1" stop-color="#008294"/>
</linearGradient>
<linearGradient id="paint9_linear_82_9278" x1="40.8937" y1="35.6394" x2="40.8937" y2="45.4773" gradientUnits="userSpaceOnUse">
<stop stop-color="#00BED8"/>
<stop offset="1" stop-color="#008294"/>
</linearGradient>
<linearGradient id="paint10_linear_82_9278" x1="40.8937" y1="35.6394" x2="40.8937" y2="45.4773" gradientUnits="userSpaceOnUse">
<stop stop-color="#00BED8"/>
<stop offset="1" stop-color="#008294"/>
</linearGradient>
</defs>
</svg>
